<?xml version="1.0" encoding="utf-8"?>
<!-- Generator: Adobe Illustrator 27.9.0, SVG Export Plug-In . SVG Version: 6.00 Build 0)  -->
<svg version="1.1" xmlns="http://www.w3.org/2000/svg" xmlns:xlink="http://www.w3.org/1999/xlink" x="0px"
    y="0px" viewBox="0 0 50 50" enable-background="new 0 0 50 50" xml:space="preserve">
    <path d="M11,4c-3.9,0-7,3.1-7,7v28c0,3.9,3.1,7,7,7h28c3.9,0,7-3.1,7-7V11c0-3.9-3.1-7-7-7H11z" />
    <polygon fill="#FFFFFF" points="13.1,13 21,13 26.7,21 33.5,13 36,13 27.8,22.6 37.9,37 30,37 23.5,27.7 15.5,37 13,37 22.3,26.1 
	" />
    <polygon points="16.9,15 31,35 34.1,35 20,15 " />
</svg>